<?xml version="1.0" standalone="no"?><!DOCTYPE svg PUBLIC "-//W3C//DTD SVG 1.1//EN" "http://www.w3.org/Graphics/SVG/1.1/DTD/svg11.dtd"><svg t="1535335008234" class="icon" style="" viewBox="0 0 1024 1024" version="1.1" xmlns="http://www.w3.org/2000/svg" p-id="7142" xmlns:xlink="http://www.w3.org/1999/xlink" width="30" height="30"><defs><style type="text/css"></style></defs><path d="M698.58816 339.24608 512 455.8592 325.41184 339.24608 325.41184 385.88928 512 502.50752 698.58816 385.88928 698.58816 385.88928Z" p-id="7143" fill="#999"></path><path d="M512 95.54432c-211.88096 0-383.6416 171.76064-383.6416 383.6416 0 211.86048 171.76064 383.63648 383.6416 383.63648 211.87584 0 383.63648-171.776 383.63648-383.63648C895.63648 267.30496 723.88096 95.54432 512 95.54432zM745.23136 619.12064c0 25.76896-20.87424 46.6432-46.6432 46.6432L325.41184 665.76384c-25.76896 0-46.6432-20.87424-46.6432-46.6432l0.23552-279.87968c0-25.76896 20.64384-46.6432 46.4128-46.6432l373.1712 0c25.76896 0 46.6432 20.87424 46.6432 46.6432L745.23136 619.12064z" p-id="7144" fill="#999"></path></svg>