<?xml version="1.0" standalone="no"?><!DOCTYPE svg PUBLIC "-//W3C//DTD SVG 1.1//EN" "http://www.w3.org/Graphics/SVG/1.1/DTD/svg11.dtd"><svg t="1534830770295" class="icon" style="" viewBox="0 0 1024 1024" version="1.1" xmlns="http://www.w3.org/2000/svg" p-id="1042" xmlns:xlink="http://www.w3.org/1999/xlink" width="48" height="48"><defs><style type="text/css"></style></defs><path d="M225.854934 210.432687l-93.071745 0c-2.49789 0-4.523013 2.025123-4.523013 4.523013l0 93.071745c0 2.49789 2.025123 4.523013 4.523013 4.523013l93.071745 0c2.49789 0 4.523013-2.025123 4.523013-4.523013l0-93.071745C230.377948 212.45781 228.352825 210.432687 225.854934 210.432687z" p-id="1043" fill="#000"></path><path d="M868.248703 210.432687 302.545594 210.432687c-15.182794 0-27.491121 2.025123-27.491121 4.523013l0 93.071745c0 2.49789 12.308327 4.523013 27.491121 4.523013L868.248703 312.550459c15.182794 0 27.491121-2.025123 27.491121-4.523013l0-93.071745C895.739824 212.45781 883.431497 210.432687 868.248703 210.432687z" p-id="1044" fill="#000"></path><path d="M225.854934 461.738269l-93.071745 0c-2.49789 0-4.523013 2.025123-4.523013 4.523013l0 93.071745c0 2.49789 2.025123 4.523013 4.523013 4.523013l93.071745 0c2.49789 0 4.523013-2.025123 4.523013-4.523013l0-93.071745C230.377948 463.763392 228.352825 461.738269 225.854934 461.738269z" p-id="1045" fill="#000"></path><path d="M868.248703 461.738269 302.545594 461.738269c-15.182794 0-27.491121 2.025123-27.491121 4.523013l0 93.071745c0 2.49789 12.308327 4.523013 27.491121 4.523013L868.248703 563.856042c15.182794 0 27.491121-2.025123 27.491121-4.523013l0-93.071745C895.739824 463.763392 883.431497 461.738269 868.248703 461.738269z" p-id="1046" fill="#000"></path><path d="M225.854934 711.448518l-93.071745 0c-2.49789 0-4.523013 2.025123-4.523013 4.523013l0 93.071745c0 2.49789 2.025123 4.523013 4.523013 4.523013l93.071745 0c2.49789 0 4.523013-2.025123 4.523013-4.523013l0-93.071745C230.377948 713.473641 228.352825 711.448518 225.854934 711.448518z" p-id="1047" fill="#000"></path><path d="M868.248703 711.448518 302.545594 711.448518c-15.182794 0-27.491121 2.025123-27.491121 4.523013l0 93.071745c0 2.49789 12.308327 4.523013 27.491121 4.523013L868.248703 813.56629c15.182794 0 27.491121-2.025123 27.491121-4.523013l0-93.071745C895.739824 713.473641 883.431497 711.448518 868.248703 711.448518z" p-id="1048" fill="#000"></path></svg>