<?xml version="1.0" standalone="no"?><!DOCTYPE svg PUBLIC "-//W3C//DTD SVG 1.1//EN" "http://www.w3.org/Graphics/SVG/1.1/DTD/svg11.dtd"><svg t="1535335041345" class="icon" style="" viewBox="0 0 1024 1024" version="1.1" xmlns="http://www.w3.org/2000/svg" p-id="8389" xmlns:xlink="http://www.w3.org/1999/xlink" width="30" height="30"><defs><style type="text/css"></style></defs><path d="M512.008 0C229.239 0 0.004 229.235 0.004 512.013 0.004 794.766 229.239 1024 512.008 1024c282.781 0 511.988-229.234 511.988-511.987C1023.996 229.235 794.789 0 512.008 0z m199.241 747.412c-36.091 36.105-170.639 1.885-303.58-131.039C274.733 483.409 240.57 348.88 276.613 312.796c31.316-31.274 69.449-85.945 126.605-14.779 57.194 71.184 29.058 91.066-3.179 123.345-22.601 22.557 24.499 79.61 73.753 128.867 49.297 49.229 106.309 96.287 128.908 73.802 32.278-32.284 52.179-60.403 123.327-3.204 71.135 57.216 16.51 95.31-14.778 126.585z" p-id="8390" fill="#999"></path></svg>